<?xml version="1.0" encoding="UTF-8" standalone="no"?>
<!DOCTYPE svg PUBLIC "-//W3C//DTD SVG 1.1//EN"
 "http://www.w3.org/Graphics/SVG/1.1/DTD/svg11.dtd">
<!-- Generated by graphviz version 2.40.1 (20161225.0304)
 -->
<!-- Title: %3 Pages: 1 -->
<svg width="277pt" height="183pt"
 viewBox="0.00 0.00 276.89 182.55" xmlns="http://www.w3.org/2000/svg" xmlns:xlink="http://www.w3.org/1999/xlink">
<g id="graph0" class="graph" transform="scale(1 1) rotate(0) translate(4 178.5454)">
<title>%3</title>
<polygon fill="#ffffff" stroke="transparent" points="-4,4 -4,-178.5454 272.8934,-178.5454 272.8934,4 -4,4"/>
<!-- In0 -->
<g id="node1" class="node">
<title>In0</title>
<polygon fill="#d3d3d3" stroke="#000000" points="206.9956,-109.1858 179.0015,-109.1858 179.0015,-92.1858 206.9956,-92.1858 206.9956,-109.1858"/>
<text text-anchor="middle" x="192.9985" y="-97.9858" font-family="Times,serif" font-size="9.00" fill="#000000">In0</text>
</g>
<!-- act1 -->
<g id="node5" class="node">
<title>act1</title>
<ellipse fill="#add8e6" stroke="#000000" cx="209.9985" cy="-21.9131" rx="21.8265" ry="21.8265"/>
<text text-anchor="middle" x="209.9985" y="-19.2131" font-family="Times,serif" font-size="9.00" fill="#000000">act1</text>
</g>
<!-- In0&#45;&gt;act1 -->
<g id="edge1" class="edge">
<title>In0&#45;&gt;act1</title>
<path fill="none" stroke="#00ff00" stroke-width=".212" stroke-dasharray="1,5" d="M194.8828,-91.9547C196.9001,-82.6069 200.2186,-67.2301 203.2331,-53.2619"/>
<polygon fill="#00ff00" stroke="#00ff00" stroke-width=".212" points="206.6631,-53.9595 205.3515,-43.4462 199.8206,-52.4828 206.6631,-53.9595"/>
</g>
<!-- act2 -->
<g id="node6" class="node">
<title>act2</title>
<ellipse fill="#add8e6" stroke="#000000" cx="122.9985" cy="-21.9131" rx="21.8265" ry="21.8265"/>
<text text-anchor="middle" x="122.9985" y="-19.2131" font-family="Times,serif" font-size="9.00" fill="#000000">act2</text>
</g>
<!-- In0&#45;&gt;act2 -->
<g id="edge2" class="edge">
<title>In0&#45;&gt;act2</title>
<path fill="none" stroke="#ff0000" stroke-width=".1815" stroke-dasharray="1,5" d="M185.2399,-91.9547C175.4792,-80.9708 158.3214,-61.6627 144.4891,-46.0969"/>
<polygon fill="#ff0000" stroke="#ff0000" stroke-width=".1815" points="146.8744,-43.5121 137.6156,-38.362 141.6419,-48.1619 146.8744,-43.5121"/>
</g>
<!-- In1 -->
<g id="node2" class="node">
<title>In1</title>
<polygon fill="#d3d3d3" stroke="#000000" points="27.9956,-174.5454 .0015,-174.5454 .0015,-157.5454 27.9956,-157.5454 27.9956,-174.5454"/>
<text text-anchor="middle" x="13.9985" y="-163.3454" font-family="Times,serif" font-size="9.00" fill="#000000">In1</text>
</g>
<!-- In1&#45;&gt;act2 -->
<g id="edge3" class="edge">
<title>In1&#45;&gt;act2</title>
<path fill="none" stroke="#00ff00" stroke-width=".3514" d="M14.8603,-157.3959C16.878,-140.8733 23.1712,-104.2931 40.9985,-79.8261 54.7204,-60.9937 76.4747,-46.0363 94.1291,-36.0429"/>
<polygon fill="#00ff00" stroke="#00ff00" stroke-width=".3514" points="95.8002,-39.1183 102.9232,-31.2752 92.4639,-32.9644 95.8002,-39.1183"/>
</g>
<!-- 545 -->
<g id="node8" class="node">
<title>545</title>
<ellipse fill="#ffffff" stroke="#000000" cx="139.9985" cy="-100.6858" rx="20.7202" ry="20.7202"/>
<text text-anchor="middle" x="139.9985" y="-97.9858" font-family="Times,serif" font-size="9.00" fill="#000000">545</text>
</g>
<!-- In1&#45;&gt;545 -->
<g id="edge10" class="edge">
<title>In1&#45;&gt;545</title>
<path fill="none" stroke="#00ff00" stroke-width=".3236" d="M28.0479,-160.4376C47.0956,-152.6335 81.9538,-137.6333 109.9985,-121.5454 111.5117,-120.6774 113.046,-119.7551 114.5794,-118.8003"/>
<polygon fill="#00ff00" stroke="#00ff00" stroke-width=".3236" points="116.7701,-121.5485 123.1985,-113.1267 112.9213,-115.7015 116.7701,-121.5485"/>
</g>
<!-- In3 -->
<g id="node3" class="node">
<title>In3</title>
<polygon fill="#d3d3d3" stroke="#000000" points="93.9956,-174.5454 66.0015,-174.5454 66.0015,-157.5454 93.9956,-157.5454 93.9956,-174.5454"/>
<text text-anchor="middle" x="79.9985" y="-163.3454" font-family="Times,serif" font-size="9.00" fill="#000000">In3</text>
</g>
<!-- In3&#45;&gt;act1 -->
<g id="edge4" class="edge">
<title>In3&#45;&gt;act1</title>
<path fill="none" stroke="#00ff00" stroke-width=".5738" stroke-dasharray="1,5" d="M94.0275,-164.8001C132.9854,-161.0235 241.0103,-148.2837 261.9985,-121.5454 281.2889,-96.9702 256.1048,-64.1594 234.5347,-43.0296"/>
<polygon fill="#00ff00" stroke="#00ff00" stroke-width=".5738" points="236.8187,-40.373 227.1346,-36.0755 232.0251,-45.4741 236.8187,-40.373"/>
</g>
<!-- In3&#45;&gt;act2 -->
<g id="edge5" class="edge">
<title>In3&#45;&gt;act2</title>
<path fill="none" stroke="#00ff00" stroke-width=".1083" stroke-dasharray="1,5" d="M71.7865,-157.3429C64.4574,-148.9297 54.2465,-135.4459 49.9985,-121.5454 44.5795,-103.813 41.9323,-96.5216 49.9985,-79.8261 59.1172,-60.9523 77.7059,-46.3482 93.8424,-36.5266"/>
<polygon fill="#00ff00" stroke="#00ff00" stroke-width=".1083" points="96.0309,-39.3067 102.9699,-31.3003 92.5526,-33.232 96.0309,-39.3067"/>
</g>
<!-- 497 -->
<g id="node7" class="node">
<title>497</title>
<ellipse fill="#ffffff" stroke="#000000" cx="79.9985" cy="-100.6858" rx="20.7202" ry="20.7202"/>
<text text-anchor="middle" x="79.9985" y="-97.9858" font-family="Times,serif" font-size="9.00" fill="#000000">497</text>
</g>
<!-- In3&#45;&gt;497 -->
<g id="edge8" class="edge">
<title>In3&#45;&gt;497</title>
<path fill="none" stroke="#00ff00" stroke-width=".4451" d="M79.9985,-157.5008C79.9985,-150.843 79.9985,-141.1657 79.9985,-131.6785"/>
<polygon fill="#00ff00" stroke="#00ff00" stroke-width=".4451" points="83.4986,-131.6103 79.9985,-121.6103 76.4986,-131.6104 83.4986,-131.6103"/>
</g>
<!-- In4 -->
<g id="node4" class="node">
<title>In4</title>
<polygon fill="#d3d3d3" stroke="#000000" points="252.9956,-109.1858 225.0015,-109.1858 225.0015,-92.1858 252.9956,-92.1858 252.9956,-109.1858"/>
<text text-anchor="middle" x="238.9985" y="-97.9858" font-family="Times,serif" font-size="9.00" fill="#000000">In4</text>
</g>
<!-- In4&#45;&gt;act1 -->
<g id="edge6" class="edge">
<title>In4&#45;&gt;act1</title>
<path fill="none" stroke="#00ff00" stroke-width=".2272" stroke-dasharray="1,5" d="M235.7842,-91.9547C232.2615,-82.386 226.4131,-66.4998 221.1758,-52.2739"/>
<polygon fill="#00ff00" stroke="#00ff00" stroke-width=".2272" points="224.4231,-50.9635 217.6838,-42.7885 217.8541,-53.3819 224.4231,-50.9635"/>
</g>
<!-- In4&#45;&gt;act2 -->
<g id="edge7" class="edge">
<title>In4&#45;&gt;act2</title>
<path fill="none" stroke="#00ff00" stroke-width=".802" d="M230.3633,-92.1746C226.1789,-88.2307 220.9887,-83.5945 215.9985,-79.8261 195.2583,-64.1639 170.1635,-48.7222 151.2713,-37.7277"/>
<polygon fill="#00ff00" stroke="#00ff00" stroke-width=".802" points="152.9549,-34.6584 142.5415,-32.7061 149.4646,-40.7262 152.9549,-34.6584"/>
</g>
<!-- 497&#45;&gt;act2 -->
<g id="edge9" class="edge">
<title>497&#45;&gt;act2</title>
<path fill="none" stroke="#00ff00" stroke-width=".1673" d="M90.1889,-82.0177C95.3752,-72.5168 101.789,-60.7674 107.5661,-50.1841"/>
<polygon fill="#00ff00" stroke="#00ff00" stroke-width=".1673" points="110.7129,-51.7241 112.4322,-41.2697 104.5687,-48.3701 110.7129,-51.7241"/>
</g>
<!-- 545&#45;&gt;act1 -->
<g id="edge11" class="edge">
<title>545&#45;&gt;act1</title>
<path fill="none" stroke="#ff0000" stroke-width=".2029" d="M154.1641,-84.7449C163.9954,-73.6815 177.2751,-58.7376 188.4169,-46.1994"/>
<polygon fill="#ff0000" stroke="#ff0000" stroke-width=".2029" points="191.3459,-48.1724 195.3722,-38.3724 186.1133,-43.5226 191.3459,-48.1724"/>
</g>
<!-- 545&#45;&gt;act2 -->
<g id="edge12" class="edge">
<title>545&#45;&gt;act2</title>
<path fill="none" stroke="#ff0000" stroke-width=".2645" d="M135.532,-79.9892C133.7926,-71.9294 131.7598,-62.5102 129.8438,-53.6318"/>
<polygon fill="#ff0000" stroke="#ff0000" stroke-width=".2645" points="133.2035,-52.6082 127.6727,-43.5716 126.3611,-54.0849 133.2035,-52.6082"/>
</g>
</g>
</svg>
